<?xml version="1.0" encoding="UTF-8" standalone="no"?>
<svg
   version="1.1"
   id="Layer_1"
   x="0px"
   y="0px"
   width="1220.389"
   viewBox="0 0 1220.3904 369.34991"
   enable-background="new 0 0 2550 1680"
   xml:space="preserve"
   sodipodi:docname="logo_v1.3.svg"
   inkscape:version="1.4 (86a8ad7, 2024-10-11)"
   height="369.35001"
   xmlns:inkscape="http://www.inkscape.org/namespaces/inkscape"
   xmlns:sodipodi="http://sodipodi.sourceforge.net/DTD/sodipodi-0.dtd"
   xmlns="http://www.w3.org/2000/svg"
   xmlns:svg="http://www.w3.org/2000/svg"><defs
   id="defs15" /><sodipodi:namedview
   id="namedview15"
   pagecolor="#ffffff"
   bordercolor="#000000"
   borderopacity="0.25"
   inkscape:showpageshadow="2"
   inkscape:pageopacity="0.0"
   inkscape:pagecheckerboard="0"
   inkscape:deskcolor="#d1d1d1"
   inkscape:zoom="0.69464286"
   inkscape:cx="231.05398"
   inkscape:cy="478.66324"
   inkscape:window-width="2560"
   inkscape:window-height="1369"
   inkscape:window-x="1432"
   inkscape:window-y="1122"
   inkscape:window-maximized="1"
   inkscape:current-layer="Layer_1" />
<path
   fill="#000000"
   opacity="1"
   stroke="none"
   d="m 1680.4044,1016.3911 c -786.57399,0 -1572.148,0 -2357.86097,0 0,-559.84119 0,-1119.68249 0,-1679.76189 849.86092,0 1699.86097,0 2549.84877,0 0,559.91052 0,1119.8362 -0.01,1679.76189 -63.6645,0 -127.323,0 -191.9814,0 M 946.24121,135.98175 c -2.199,-0.42078 -4.3973,-1.20612 -6.5969,-1.20893 -53.5935,-0.0672 -107.1872,-0.0684 -160.7808,-0.0352 -10.3274,0.006 -19.6487,3.56537 -27.6774,9.7182 -8.5031,6.51629 -13.4227,15.04297 -13.2323,26.43737 0.3726,22.2967 0.2657,44.60566 0.044,66.90638 -0.1165,11.72894 5.0473,20.35003 14.2293,26.9884 7.4968,5.41992 15.7558,8.04236 25.1559,8.01471 53.5931,-0.15772 107.1869,-0.055 160.7804,-0.14093 2.829,-0.005 5.6565,-0.92291 9.7678,-2.69019 0.136,-9.85021 0.3478,-19.70056 0.3238,-29.55041 0,-1.42407 -1.1393,-2.8454 -2.6645,-5.76111 -3.6354,-0.20007 -7.2705,-0.57098 -10.906,-0.57434 -43.8966,-0.0405 -87.7936,0.036 -131.6897,-0.10998 -5.2446,-0.0175 -10.6297,-0.60901 -15.6976,-1.91364 -9.9246,-2.55475 -14.8253,-9.22589 -15.1834,-19.5719 -0.1495,-4.31805 0.3052,-8.67615 -0.089,-12.96332 -1.7292,-18.82623 9.3112,-25.2254 25.7379,-26.7511 2.3083,-0.21441 4.653,-0.0383 6.9809,-0.0383 43.8966,-5.5e-4 87.7934,0.0426 131.6897,-0.0853 3.3729,-0.01 6.7423,-1.22443 11.3753,-3.08185 0.1875,-6.91132 0.6018,-13.82684 0.4724,-20.73218 -0.071,-3.77844 -1.0607,-7.53961 -2.0406,-12.85644 M 61.408012,38.045474 c -11.66058,0.003 -23.32587,-0.20471 -34.98047,0.0607 -14.6474,0.33355 -26.16893984,11.40057 -26.26653984,25.93622 -0.26385,39.310236 -0.14386,78.623586 -0.056,117.935416 0.0228,10.22095 4.85053004,18.13727 13.85326984,22.59119 4.55451,2.25317 10.11786,3.14251 15.27881,3.3573 11.53162,0.47992 23.09687,0.15002 34.98902,0.15002 0,9.97217 0,18.79053 0,28.63764 -3.70258,0 -6.94086,-3.1e-4 -10.17914,6e-5 -10.32776,0.001 -20.66187,-0.22449 -30.98157,0.0641 -11.58612,0.32392 -18.2064798,6.25354 -18.2752098,16.67603 -0.19128,28.98309 -0.18213,57.96899 -0.003,86.95226 0.0615,9.9491 6.2869298,16.1798 16.3485698,16.2491 28.98291,0.1998 57.9693,0.2208 86.951718,-0.016 9.89063,-0.081 15.75379,-6.5169 15.95948,-16.6475 0.18933,-9.32457 -0.01,-18.6563 0.0805,-27.98375 0.0244,-2.5202 0.47772,-5.03625 0.77338,-7.93982 11.7074,0 22.67761,1.8e-4 33.64777,0 25.31964,-3e-4 50.64129,0.19641 75.95825,-0.0658 19.13751,-0.19818 31.37225,-11.14208 31.47809,-28.72735 0.28887,-47.97229 0.15686,-95.94763 0.0453,-143.92145 -0.0202,-8.67645 -3.19421,-16.14136 -10.01495,-21.95508 -5.93616,-5.05987 -12.88568,-6.64013 -20.35229,-6.66522 -18.32325,-0.0614 -36.64685,0.007 -54.97016,-0.0453 -3.1662,-0.009 -6.33154,-0.35601 -9.9397,-0.5736 0,-11.933966 0.10694,-22.912596 -0.0232,-33.888366 -0.23621,-19.90155 -10.57825,-30.14795 -30.36407,-30.17389 -25.65271,-0.0336 -51.305608,-0.007 -78.957828,-0.007 M 615.40451,134.71951 c -35.6247,0.12903 -71.2494,0.2569 -106.874,0.40833 -0.2771,0.001 -0.5624,0.30944 -0.8269,0.49798 -0.2708,0.19293 -0.5206,0.4151 -1.0746,0.86267 0,11.59595 0,23.42566 0,36.44184 57.9287,0 115.3344,0 172.6272,0 0,5.64245 0,10.07098 0,15.39294 -57.9315,0 -115.0605,0 -172.6332,0 0,28.37933 0,55.83161 0,84.40143 4.0668,0 7.6337,-6e-5 11.2006,-6e-5 50.9549,1.2e-4 101.9098,4.9e-4 152.8647,6e-5 3.3305,-6e-5 6.6652,0.1062 9.9905,-0.0251 16.9733,-0.6701 30.8242,-11.40655 34.2239,-28.05871 1.6334,-8.00128 1.4307,-16.56915 0.7213,-24.76465 -0.2927,-3.38385 -3.7201,-6.83936 -6.4255,-9.56336 -2.1784,-2.19335 -5.4153,-3.33526 -9.368,-5.63269 14.414,-4.10034 17.1879,-14.36993 16.2548,-26.72284 -0.175,-2.31817 0,-4.66119 -0.035,-6.99182 -0.1365,-8.24566 -2.8483,-15.60424 -7.9618,-22.01709 -8.3737,-10.50134 -20.1395,-13.82702 -32.7378,-14.11334 -19.3064,-0.4389 -38.6299,-0.11548 -59.9463,-0.1156 m -307.37842,51.60221 c -10.68701,-3.34448 -21.4624,-0.99719 -32.60907,-1.44867 0,29.70472 0,58.45679 0,87.43177 2.99103,0.16815 5.29706,0.41009 7.60315,0.41101 53.97934,0.0217 107.95864,0.0177 161.93804,0.0165 1.3327,0 2.6677,0.0255 3.9977,-0.0397 18.2021,-0.89361 36.6273,-18.23455 35.4388,-37.2713 -1.3263,-21.24243 -0.4421,-42.63275 -0.2291,-63.95581 0.073,-7.35687 -2.0775,-13.67767 -6.4418,-19.43231 -8.9129,-11.75232 -21.2887,-17.10541 -35.4709,-17.1922 -53.3109,-0.32623 -106.6251,-0.13623 -159.938,-0.10223 -2.23065,0.001 -4.46112,0.3778 -7.56006,0.65814 0.15027,12.66022 -0.47082,24.74316 0.37403,37.34833 4.14514,0 7.1231,0 10.10101,0 44.31642,0 88.63292,-0.0414 132.94902,0.0621 4.6045,0.0108 9.3059,0.43738 13.791,1.43884 11.9623,2.67121 17.9832,10.44562 18.079,22.65491 0.039,4.9978 -0.057,9.99701 0.018,14.99402 0.1217,8.11419 -3.1278,14.60705 -10.6461,17.56421 -6.0197,2.36773 -12.6602,4.31195 -19.0503,4.39038 -34.3151,0.42151 -68.638,0.21252 -102.95814,0.17578 -2.5644,-0.003 -5.12842,-0.36127 -8.78736,-0.63678 0,-15.46253 0,-30.36939 -0.59912,-47.06696 m 691.38492,49.73218 c -9.5392,0 -19.0783,0 -28.828,0 0,12.72992 0,24.21454 0,36.67029 3.0788,0 5.6507,-6e-5 8.2227,0 53.94669,9.7e-4 107.89349,0.006 161.84009,-0.009 2.326,-6.1e-4 4.6735,-0.01 6.9745,-0.30133 16.803,-2.12951 30.4153,-15.14941 31.0353,-30.12805 0.3854,-9.30762 0.4379,-18.66504 -0.052,-27.96362 -0.5751,-10.91339 -6.1714,-18.98737 -16.4936,-22.74579 -5.5033,-2.00379 -11.5872,-3.35114 -17.4161,-3.37659 -55.9436,-0.24475 -111.8889,-0.15436 -167.83359,-0.10412 -2.1607,0.002 -4.3207,0.56781 -6.6803,0.89892 -0.3889,11.73773 4.7723,19.76325 13.9502,25.26465 7.8442,4.7019 16.59739,6.47638 25.72229,6.47455 40.9594,-0.008 81.919,-0.003 122.8785,-0.002 3.5412,6e-5 7.0823,6e-5 11.4619,6e-5 -0.334,5.84125 -0.5865,10.25763 -0.8761,15.32233 -48.0875,0 -94.9972,0 -143.90569,0 m 178.75659,-99.88104 c -2.1823,-0.48651 -4.3641,-1.39478 -6.547,-1.39795 -54.2204,-0.0797 -108.4419,-0.25226 -162.6606,0.0584 -14.90539,0.0854 -26.70259,7.3833 -34.95859,19.72272 -3.4796,5.20062 -5.448,11.16851 -2.9328,17.64459 69.27409,0 137.98259,0 207.58209,0 0,-11.74597 0,-22.96643 -0.4831,-36.02777 M 237.37536,0.04248391 c -9.97138,6.1e-4 -19.94361,-0.0802 -29.91388,0.0272 -8.20642,0.0884 -12.44959,3.69152999 -12.61365,11.83289009 -0.33496,16.61218 -0.31262,33.2395 -0.0146,49.85302 0.14527,8.10053 4.32215,11.87695 12.61847,12.24634 5.97113,0.26587 11.96338,0.0632 17.94617,0.0633 10.30377,2.5e-4 20.61304,0.20172 30.90942,-0.0744 7.74896,-0.20776 12.10907,-3.60254 12.237,-10.25458 0.3451,-17.93988 0.36151,-35.89611 -0.0159,-53.8348401 -0.14239,-6.76892 -3.99646,-9.63432999 -11.22107,-9.82213999 -5.97888,-0.15533 -11.96484,-0.035 -19.93194,-0.0368 z"
   id="path1"
   style="display:none" />
<path
   fill="#e57e73"
   opacity="1"
   stroke="none"
   d="m 82.561976,43.803895 c 26.652524,-6.1e-4 52.305414,-0.0271 77.958124,0.006 19.78582,0.0259 30.12786,10.27234 30.36407,30.17389 0.13019,10.97577 0.0232,21.9544 0.0232,33.888365 3.60816,0.21759 6.7735,0.56451 9.9397,0.5736 18.32331,0.0525 36.64691,-0.0161 54.97016,0.0453 7.46661,0.0251 14.41613,1.60535 20.35229,6.66522 6.82074,5.81372 9.99475,13.27863 10.01495,21.95508 0.11152,47.97382 0.24353,95.94916 -0.0453,143.92145 -0.10584,17.58527 -12.34058,28.52917 -31.47809,28.72735 -25.31696,0.26221 -50.63861,0.0655 -75.95825,0.0658 -10.97016,1.8e-4 -21.94037,0 -33.64777,0 -0.29566,2.90357 -0.74896,5.41962 -0.77338,7.93982 -0.0902,9.32745 0.10883,18.65918 -0.0805,27.9837 -0.20569,10.1306 -6.06885,16.5666 -15.95948,16.6475 -28.982414,0.2372 -57.968804,0.2162 -86.951714,0.016 -10.06164,-0.069 -16.28711,-6.3 -16.34857,-16.2491 -0.17908,-28.98322 -0.18823,-57.96912 0.003,-86.95221 0.0687,-10.42249 6.68909,-16.35211 18.27521,-16.67603 10.3197,-0.28857 20.65381,-0.0629 30.98157,-0.0641 3.23828,-3.7e-4 6.47656,-6e-5 10.17914,-6e-5 0,-9.84711 0,-18.66547 0,-28.63764 -11.89215,0 -23.4574,0.3299 -34.98902,-0.15002 -5.16095,-0.21479 -10.7243,-1.10413 -15.27881,-3.3573 -9.00274,-4.45392 -13.83044,-12.37024 -13.85327,-22.59119 -0.0879,-39.31183 -0.20788,-78.62518 0.056,-117.935415 0.0976,-14.53565 11.61914,-25.60267 26.26654,-25.93622 11.6546,-0.26544 23.31989,-0.0582 35.98017,-0.0607 M 31.239526,193.11407 c 3.37072,7.5863 9.41101,10.77899 17.48938,10.70331 5.33184,-0.0499 10.66443,-0.007 15.9967,-0.007 6.52802,4.9e-4 13.05597,1.2e-4 20.1532,1.2e-4 0,-22.10016 0.34808,-42.74957 -0.1001,-63.38171 -0.42914,-19.75714 12.49426,-32.58014 32.227544,-32.05292 17.98351,0.48047 35.99016,0.13238 53.98632,0.071 2.85992,-0.01 5.71838,-0.43298 9.18988,-0.71478 0,-13.358085 0.39752,-25.985585 -0.13007,-38.574275 -0.39727,-9.48059 -7.16369,-15.22131 -17.56762,-15.26477 -38.32502,-0.15997 -76.651604,-0.17389 -114.976374,0.0136 -10.90528,0.0533 -17.09095,6.67615 -17.23767,17.65149 -0.15143,11.32904 -0.0714,22.66186 -0.029,33.992805 0.10706,28.6527 0.24988,57.30529 0.99781,87.56322 M 219.13741,140.34457 c -2.14368,-0.90851 -4.26545,-1.87342 -6.43427,-2.71735 -50.36957,-19.60095 -103.29815,16.8833 -102.79809,70.85034 0.38019,41.03546 33.57495,73.88196 74.76171,73.97736 41.13892,0.0953 75.13367,-32.5882 75.45233,-73.41754 0.23578,-30.21204 -13.68823,-52.77887 -40.98168,-68.69281 z"
   id="path2" />
<path
   fill="#e77f73"
   opacity="1"
   stroke="none"
   d="m 636.55887,140.47796 c 20.3163,1.2e-4 39.6398,-0.3233 58.9462,0.1156 12.5983,0.28632 24.3641,3.612 32.7378,14.11334 5.1135,6.41285 7.8253,13.77143 7.9618,22.01709 0.039,2.33063 -0.1401,4.67365 0.035,6.99182 0.9331,12.35291 -1.8408,22.6225 -16.2548,26.72284 3.9527,2.29743 7.1896,3.43934 9.368,5.63269 2.7054,2.724 6.1328,6.17951 6.4255,9.56336 0.7094,8.1955 0.9121,16.76337 -0.7213,24.76465 -3.3997,16.65216 -17.2506,27.38861 -34.2239,28.05871 -3.3253,0.13129 -6.66,0.025 -9.9905,0.0251 -50.9549,4.3e-4 -101.9098,6e-5 -152.8647,-6e-5 -3.5669,0 -7.1338,6e-5 -11.2006,6e-5 0,-28.56982 0,-56.0221 0,-84.40143 57.5727,0 114.7017,0 172.6332,0 0,-5.32196 0,-9.75049 0,-15.39294 -57.2928,0 -114.6985,0 -172.6272,0 0,-13.01618 0,-24.84589 0,-36.44184 0.554,-0.44757 0.8038,-0.66974 1.0746,-0.86267 0.2645,-0.18854 0.5498,-0.49682 0.8269,-0.49798 35.6246,-0.15143 71.2493,-0.2793 107.8741,-0.40833 m -34.9997,85.92053 c -13.219,0 -26.438,0 -40.0989,0 -0.2584,3.32599 -0.5726,5.57111 -0.5676,7.81562 0,2.23315 0.3303,4.46569 0.5504,7.12396 46.3162,0 92.051,0 138.277,0 0,-5.0116 0,-9.45465 0,-13.62122 -1.1739,-0.54675 -1.7567,-1.05469 -2.3416,-1.05682 -31.273,-0.11414 -62.5464,-0.18561 -95.8193,-0.26154 z"
   id="path3" />
<path
   fill="#e67e73"
   opacity="1"
   stroke="none"
   d="m 328.47981,192.9754 c 0.29956,15.80224 0.29956,30.7091 0.29956,46.17163 3.65894,0.27551 6.22296,0.63403 8.78736,0.63678 34.32014,0.0367 68.64304,0.24573 102.95814,-0.17578 6.3901,-0.0784 13.0306,-2.02265 19.0503,-4.39038 7.5183,-2.95716 10.7678,-9.45002 10.6461,-17.56421 -0.075,-4.99701 0.021,-9.99622 -0.018,-14.99402 -0.096,-12.20929 -6.1167,-19.9837 -18.079,-22.65491 -4.4851,-1.00146 -9.1865,-1.42804 -13.791,-1.43884 -44.3161,-0.10346 -88.6326,-0.0621 -132.94902,-0.0621 -2.97791,0 -5.95587,0 -10.10101,0 -0.84485,-12.60517 -0.22376,-24.68811 -0.37403,-37.34833 3.09894,-0.28034 5.32941,-0.65674 7.56006,-0.65814 53.3129,-0.034 106.6271,-0.224 159.938,0.10223 14.1822,0.0868 26.558,5.43988 35.4709,17.1922 4.3643,5.75464 6.5153,12.07544 6.4418,19.43231 -0.213,21.32306 -1.0972,42.71338 0.2291,63.95581 1.1885,19.03675 -17.2367,36.37769 -35.4388,37.2713 -1.33,0.0652 -2.665,0.0397 -3.9977,0.0397 -53.9794,10e-4 -107.9587,0.005 -161.93804,-0.0165 -2.30609,-9.2e-4 -4.61212,-0.24286 -7.60315,-0.41101 0,-28.97498 0,-57.72705 0,-87.43177 11.14667,0.45148 21.92206,-1.89581 32.90863,2.344 z"
   id="path4" />
<path
   fill="#e77f73"
   opacity="1"
   stroke="none"
   d="m 966.80267,277.00421 c -2.8281,0.49298 -5.6556,1.41137 -8.4846,1.41589 -53.5935,0.0859 -107.1873,-0.0168 -160.7804,0.14093 -9.4001,0.0276 -17.6591,-2.59479 -25.1559,-8.01471 -9.182,-6.63837 -14.3458,-15.25946 -14.2293,-26.9884 0.2213,-22.30072 0.3282,-44.60968 -0.044,-66.90638 -0.1904,-11.3944 4.7292,-19.92108 13.2323,-26.43737 8.0287,-6.15283 17.35,-9.7118 27.6774,-9.7182 53.5936,-0.0332 107.1873,-0.032 160.7808,0.0352 2.1996,0.003 4.3979,0.78815 6.7502,2.97559 0.1532,12.18603 0.1531,22.60535 0.153,33.02478 -3.3711,0.6546 -6.7405,1.86926 -10.1134,1.87903 -43.8963,0.12787 -87.7931,0.0847 -131.6897,0.0853 -2.3279,0 -4.6726,-0.17614 -6.9809,0.0383 -16.4267,1.5257 -27.4671,7.92487 -25.7379,26.7511 0.3938,4.28717 -0.061,8.64527 0.089,12.96332 0.3581,10.34601 5.2588,17.01715 15.1834,19.5719 5.0679,1.30463 10.453,1.89618 15.6976,1.91364 43.8961,0.14593 87.7931,0.0695 131.6897,0.10998 3.6355,0.003 7.2706,0.37427 11.3399,2.27197 0.497,12.76111 0.5604,23.82465 0.6236,34.88819 z"
   id="path5" />
<path
   fill="#e77f73"
   opacity="1"
   stroke="none"
   d="m 1020.5646,241.81225 c 47.9091,0 94.8188,0 142.9063,0 0.2896,-5.0647 0.5421,-9.48108 0.8761,-15.32233 -4.3796,0 -7.9207,0 -11.4619,-6e-5 -40.9595,-6.1e-4 -81.9191,-0.006 -122.8785,0.002 -9.1249,0.002 -17.8781,-1.77265 -25.7223,-6.47455 -9.17793,-5.5014 -14.33913,-13.52692 -13.95023,-25.26465 2.3596,-0.33111 4.5196,-0.89697 6.6803,-0.89892 55.94473,-0.0502 111.89003,-0.14063 167.83363,0.10412 5.8289,0.0254 11.9128,1.3728 17.4161,3.37659 10.3222,3.75842 15.9185,11.8324 16.4936,22.74579 0.49,9.29858 0.4375,18.656 0.052,27.96362 -0.62,14.97864 -14.2323,27.99854 -31.0353,30.12805 -2.301,0.29163 -4.6485,0.30072 -6.9745,0.30133 -53.9466,0.0148 -107.8934,0.0102 -161.84013,0.009 -2.572,-6e-5 -5.1439,0 -8.2227,0 0,-12.45575 0,-23.94037 0,-36.67029 9.74973,0 19.28883,0 29.82743,0 z"
   id="path6" />
<path
   fill="#e67e73"
   opacity="1"
   stroke="none"
   d="m 1198.5633,142.85162 c 0.2416,12.14093 0.2416,23.36139 0.2416,35.10736 -69.5995,0 -138.308,0 -207.58213,0 -2.5152,-6.47608 -0.5468,-12.44397 2.9328,-17.64459 8.25603,-12.33942 20.05323,-19.63733 34.95863,-19.72272 54.2187,-0.31067 108.4402,-0.13806 162.6606,-0.0584 2.1829,0.003 4.3647,0.91144 6.7885,2.31836 z"
   id="path7" />
<path
   fill="#e67e73"
   opacity="1"
   stroke="none"
   d="m 258.52174,5.8008451 c 6.97498,0.002 12.96094,-0.11853 18.93982,0.0368 7.22461,0.18781 11.07868,3.05322 11.22107,9.8221399 0.37744,17.93873 0.36103,35.89496 0.0159,53.83484 -0.12793,6.65204 -4.48804,10.04682 -12.237,10.25458 -10.29638,0.27612 -20.60565,0.0747 -30.90942,0.0744 -5.98279,-1.2e-4 -11.97504,0.20258 -17.94617,-0.0633 -8.29632,-0.36939 -12.4732,-4.14581 -12.61847,-12.24634 -0.29803,-16.61352 -0.32037,-33.24084 0.0146,-49.85302 0.16406,-8.1413599 4.40723,-11.7444499 12.61365,-11.8328899 9.97027,-0.10742 19.9425,-0.0266 30.906,-0.0272 z"
   id="path8" />
<path
   fill="#e98277"
   opacity="1"
   stroke="none"
   d="m 967.44427,276.36706 c -0.7048,-10.42639 -0.7682,-21.48993 -0.8086,-33.50452 0.6347,0.47156 1.7705,1.89289 1.774,3.31696 0.024,9.84985 -0.1878,19.7002 -0.9654,30.18756 z"
   id="path9" />
<path
   fill="#e98277"
   opacity="1"
   stroke="none"
   d="m 967.33267,175.93011 c -0.6308,-9.81799 -0.6307,-20.23731 -0.5816,-31.64941 0.6243,2.77624 1.6142,6.53741 1.685,10.31585 0.1294,6.90534 -0.2849,13.82086 -1.1034,21.33356 z"
   id="path10" />
<path
   fill="#010101"
   opacity="1"
   stroke="none"
   d="m 10.775502,186.5531 c -0.43817,-29.45532 -0.58099,-58.10791 -0.68805,-86.760616 -0.0424,-11.33094 -0.1224298,-22.66376 0.029,-33.9928 0.14672,-10.97534 6.33239,-17.59815 17.23767,-17.65149 38.32477,-0.18744 76.651358,-0.17352 114.976378,-0.0136 10.40393,0.0435 17.17035,5.78418 17.56762,15.26477 0.52759,12.58869 0.13007,25.21619 0.13007,38.574276 -3.4715,0.2818 -6.32996,0.70508 -9.18988,0.71478 -17.99616,0.0613 -36.00281,0.40943 -53.986328,-0.071 -19.73328,-0.52722 -32.65668,12.29578 -32.22754,32.05292 0.44818,20.63214 0.1001,41.28155 0.1001,63.38171 -7.09723,0 -13.62518,3.7e-4 -20.1532,-1.2e-4 -5.33227,-3.7e-4 -10.66486,-0.0429 -15.9967,0.007 -8.07837,0.0757 -14.11866,-3.11701 -17.79914,-11.50592 z"
   id="path11"
   style="display:none" />
<path
   fill="#fefafa"
   opacity="1"
   stroke="none"
   d="m 219.80629,140.67401 c 26.62457,15.58441 40.54858,38.15124 40.3128,68.36328 -0.31866,40.82934 -34.31341,73.51281 -75.45233,73.41754 -41.18676,-0.0954 -74.38152,-32.9419 -74.76171,-73.97736 -0.50006,-53.96704 52.42852,-90.45129 102.79809,-70.85034 2.16882,0.84393 4.29059,1.80884 7.10315,3.04688 m 23.76068,76.85919 c 6.60553,-35.39807 -22.07367,-71.05915 -60.67285,-69.55499 -25.79718,1.0053 -48.44879,18.46209 -55.41602,43.96289 -6.81756,24.95288 4.10034,52.71972 25.90833,65.8916 35.99115,21.73828 79.72528,2.90527 90.18054,-40.2995 z"
   id="path12"
   style="display:none" />
<path
   fill="#100908"
   opacity="1"
   stroke="none"
   d="m 582.40481,220.64013 c 32.273,0.0759 63.5464,0.1474 94.8194,0.26154 0.5849,0.002 1.1677,0.51007 2.3416,1.05682 0,4.16657 0,8.60962 0,13.62122 -46.226,0 -91.9608,0 -138.277,0 -0.2201,-2.65827 -0.5455,-4.89081 -0.5504,-7.12396 -0.01,-2.24451 0.3092,-4.48963 0.5676,-7.81562 13.6609,0 26.8799,0 41.0988,0 z"
   id="path13"
   style="display:none" />
<path
   fill="#e98277"
   opacity="1"
   stroke="none"
   d="m 243.36482,218.35296 c -10.25311,42.38501 -53.98724,61.21802 -89.97839,39.47974 -21.80799,-13.17188 -32.72589,-40.93872 -25.90833,-65.8916 6.96723,-25.5008 29.61884,-42.95759 55.41602,-43.96289 38.59918,-1.50416 67.27838,34.15692 60.4707,70.37475 M 189.72621,193.0285 c -0.0945,-5.9787 0.17304,-11.99115 -0.38141,-17.92688 -0.60089,-6.43341 -4.16583,-9.59192 -9.43286,-9.41828 -5.23065,0.17243 -8.73645,3.53711 -9.01288,9.91089 -0.40283,9.28864 -0.17505,18.60504 -0.20019,27.90961 -0.0159,5.8894 -0.003,11.77887 -0.003,17.91119 2.77539,0.47681 4.34857,0.97486 5.92407,0.98224 14.28985,0.0667 28.5802,0.0654 42.87024,0.0297 1.6474,-0.004 3.36755,-0.0974 4.92639,-0.5702 3.88055,-1.17687 6.12927,-3.89575 6.35126,-7.9934 0.24499,-4.52222 -1.81031,-7.93646 -6.14887,-9.08966 -3.14117,-0.83496 -6.57178,-0.73035 -9.87658,-0.77094 -7.87104,-0.0967 -15.74402,-0.0312 -24.01606,-0.0312 -0.42999,-3.90887 -0.71277,-6.47906 -1.00012,-10.94305 z"
   id="path14"
   inkscape:label="path14"
   style="fill:#e85a4f;fill-opacity:1" />
<path
   fill="#fefafa"
   opacity="1"
   stroke="none"
   d="m 189.72853,193.9754 c 0.28503,3.51709 0.56781,6.08728 0.9978,9.99615 8.27204,0 16.14502,-0.0655 24.01606,0.0312 3.3048,0.0406 6.73541,-0.064 9.87658,0.77094 4.33856,1.1532 6.39386,4.56744 6.14887,9.08966 -0.22199,4.09765 -2.47071,6.81653 -6.35126,7.9934 -1.55884,0.47278 -3.27899,0.56611 -4.92639,0.5702 -14.29004,0.0358 -28.58039,0.037 -42.87024,-0.0297 -1.5755,-0.007 -3.14868,-0.50543 -5.92407,-0.98224 0,-6.13232 -0.0129,-12.02179 0.003,-17.91119 0.0251,-9.30457 -0.20264,-18.62097 0.20019,-27.90961 0.27643,-6.37378 3.78223,-9.73846 9.01288,-9.91089 5.26703,-0.17364 8.83197,2.98487 9.43286,9.41828 0.55445,5.93573 0.28687,11.94818 0.38373,18.87378 z"
   id="path15"
   style="display:none" />
<path
   style="fill:#e85a4f;fill-opacity:1;stroke-width:1.43959"
   d="m 34.136343,359.91679 c -8.493702,-3.74263 -8.946085,-6.67916 -8.922319,-57.91682 0.02282,-49.19478 0.150866,-50.12809 7.640702,-55.69153 3.674393,-2.72933 6.393481,-3.06625 28.431877,-3.523 l 24.368924,-0.50505 V 228.23635 214.1923 l -21.953728,-0.74654 c -14.856148,-0.5052 -23.582679,-1.44552 -26.992288,-2.90858 -5.970698,-2.56199 -12.171472,-8.84194 -14.304302,-14.48694 -2.451127,-6.48745 -2.075412,-129.338883 0.413775,-135.296347 2.335449,-5.589515 10.990705,-13.502239 16.43621,-15.026152 2.162856,-0.60527 32.436322,-1.100492 67.274366,-1.100492 70.49277,0 70.113,-0.04747 77.54107,9.691252 4.90983,6.437121 6.67487,16.269769 6.67487,37.184344 V 108.4739 l 37.06941,0.46742 c 35.99975,0.45393 37.24226,0.56646 43.05978,3.89971 6.72672,3.85419 10.70521,8.63499 13.19599,15.85708 2.2994,6.66719 2.37375,152.37173 0.082,160.62675 -2.03728,7.33831 -10.52292,15.82395 -17.86123,17.86122 -3.73743,1.03759 -25.78993,1.59242 -63.50143,1.59766 l -57.77554,0.008 -0.86804,3.23908 c -0.47742,1.78149 -0.87689,11.48849 -0.8877,21.57111 -0.0195,18.20665 -0.0484,18.36421 -4.21878,23.03342 l -4.19913,4.70138 -47.985961,0.33269 c -39.300588,0.27247 -48.842549,-0.0448 -52.718516,-1.75266 z m 169.233137,-79.208 c 24.93806,-5.87965 45.8938,-25.21382 53.81942,-49.65481 2.25957,-6.9681 3.03456,-13.03307 3.0352,-23.75321 10e-4,-23.53739 -6.72071,-38.92284 -24.11514,-55.19448 -44.29945,-41.43996 -117.05203,-16.07013 -125.81704,43.87413 -7.90985,54.09576 39.5938,97.33825 93.07756,84.72837 z M 85.655527,169.36649 c 0,-23.22463 0.582269,-37.49159 1.659776,-40.66838 2.576255,-7.59551 6.677892,-12.58643 13.217247,-16.08289 5.68134,-3.0377 7.94826,-3.23008 43.06642,-3.65485 L 180.66838,108.512 V 86.935154 c 0,-16.052515 -0.53548,-22.612365 -2.09149,-25.621353 -4.05678,-7.844921 -5.93842,-8.04902 -74.20671,-8.04902 -68.258825,0 -66.847898,-0.163894 -72.051087,8.369513 -2.640698,4.330834 -2.790068,7.518892 -2.676792,57.131776 0.06598,28.89974 0.551992,58.19794 1.080018,65.1071 1.481459,19.38473 4.011308,20.87482 35.858658,21.12086 l 19.07455,0.14736 z"
   id="path16"
   transform="matrix(1.0000011,0,0,1.0000011,0,-2.5414299e-4)" /><path
   style="fill:#e85a4f;fill-opacity:1;stroke-width:1.43959"
   d="m 227.97247,78.78396 c -11.78,-0.830994 -12.03417,-1.603881 -12.03417,-36.594425 0,-39.0096578 -3.32398,-35.7113859 35.98972,-35.7113859 39.32202,0 35.98972,-3.3168266 35.98972,35.8225359 0,39.020424 2.42912,36.015538 -29.55056,36.554714 -13.04282,0.219902 -26.72044,0.187753 -30.39471,-0.07144 z"
   id="path17"
   transform="matrix(1.0000011,0,0,1.0000011,0,-2.5414299e-4)" /><path
   style="fill:#e85a4f;fill-opacity:1;stroke-width:1.43959"
   d="m 295.83547,233.74069 v -43.38013 l 14.16059,0.68188 c 7.78833,0.37504 14.91429,1.14769 15.83548,1.71702 1.15915,0.71639 1.67489,8.0413 1.67489,23.78792 v 22.75279 l 6.67907,0.91547 c 8.6097,1.18009 66.5344,0.97394 96.25152,-0.34255 25.15194,-1.11425 31.65475,-2.94945 37.15929,-10.48695 3.57955,-4.90156 4.82366,-20.6294 2.51246,-31.76239 -2.12715,-10.2464 -7.97794,-15.94005 -18.75508,-18.25133 -4.82633,-1.03506 -33.02674,-1.58322 -81.45026,-1.58322 h -74.06796 v -17.99486 -17.99485 h 87.76091 c 84.09554,0 88.08076,0.11967 95.4194,2.86541 4.68379,1.75242 9.95602,5.2472 13.57356,8.99742 10.64696,11.03749 10.5469,10.50843 10.5469,55.77258 0,31.04299 -0.45941,41.52573 -1.97929,45.16333 -3.11705,7.46014 -11.03155,15.48085 -18.88426,19.13767 l -7.20842,3.35679 -89.6144,0.0141 -89.6144,0.0141 z"
   id="path18"
   transform="matrix(1.0000011,0,0,1.0000011,0,-2.5414299e-4)" /><path
   style="fill:#e85a4f;fill-opacity:1;stroke-width:1.43959"
   d="m 527.60925,236.09254 v -41.02827 h 86.37532 86.37532 v -8.63754 -8.63753 h -86.37532 -86.37532 v -17.8766 -17.87659 l 70.88602,-0.47816 c 90.34944,-0.60945 109.18559,0.0658 117.11661,4.19842 6.71484,3.49891 14.4697,11.73782 17.17982,18.25214 1.66435,4.00064 2.69568,17.19612 2.278,29.14592 -0.19339,5.53265 -6.0028,12.85976 -12.22588,15.41986 l -4.48907,1.84675 4.50718,2.34708 c 2.47896,1.29089 6.2039,4.36349 8.27764,6.828 3.47087,4.12489 3.76933,5.5302 3.75639,17.68667 -0.0213,19.99104 -5.63719,30.26295 -20.14018,36.83799 -6.29741,2.85497 -8.99838,2.93779 -96.81234,2.96853 l -90.33419,0.0316 z m 172.75064,-1.28556 c 0,-5.75149 -0.59018,-7.9902 -2.27712,-8.63754 -1.25242,-0.48059 -32.67144,-0.87381 -69.82005,-0.87381 h -67.54293 v 8.63753 8.63753 h 69.82005 69.82005 z"
   id="path19"
   transform="matrix(1.0000011,0,0,1.0000011,0,-2.5414299e-4)" /><path
   style="fill:#e85a4f;fill-opacity:1;stroke-width:1.43959"
   d="m 790.85034,277.0836 c -8.99565,-1.50648 -15.80014,-4.91542 -22.18077,-11.11221 -9.07448,-8.81303 -9.28654,-10.09202 -9.28654,-56.01049 0,-38.9142 0.17552,-41.70236 2.99133,-47.51906 3.59302,-7.42219 9.5784,-12.73408 19.47621,-17.28471 l 7.35186,-3.38011 87.66099,0.37113 87.661,0.37113 0.95931,16.55527 c 0.52762,9.1054 0.63631,16.87918 0.24152,17.27506 -0.39479,0.39589 -35.80849,1.04371 -78.6971,1.43959 -74.35318,0.68632 -78.24276,0.85368 -83.64476,3.59897 -9.17209,4.66125 -11.35225,8.89551 -12.04148,23.38667 -0.98426,20.69428 3.08059,29.78945 15.00378,33.57122 3.96672,1.25815 27.66411,2.02155 81.88053,2.63771 l 76.2982,0.86713 1.22435,17.01044 c 0.67339,9.35574 0.99729,17.20153 0.7198,17.43509 -1.22894,1.03429 -169.63518,1.78913 -175.61823,0.78717 z"
   id="path20"
   transform="matrix(1.0000011,0,0,1.0000011,0,-2.5414299e-4)" /><path
   style="fill:#e85a4f;fill-opacity:1;stroke-width:1.43959"
   d="m 991.15681,259.84576 v -17.27507 h 86.17969 86.1796 l 0.9155,-6.67907 c 0.5035,-3.67349 0.9154,-7.53838 0.9154,-8.58864 0,-1.55678 -13.8963,-1.98509 -75.2185,-2.31836 l -75.2185,-0.40879 -6.4781,-3.4068 c -3.563,-1.87374 -7.6808,-4.465 -9.15064,-5.75835 -3.72404,-3.27685 -8.12445,-12.31663 -8.12445,-16.69009 v -3.65632 h 90.52879 c 80.5332,0 91.3484,0.2647 97.9519,2.39739 8.5992,2.77726 15.0402,9.24191 17.2939,17.3576 2.0154,7.25729 1.9403,32.51322 -0.117,39.38002 -2.3816,7.94917 -9.3225,15.59826 -17.6893,19.49421 l -7.2999,3.3992 -90.3342,0.0141 -90.33419,0.0141 z"
   id="path21"
   transform="matrix(1.0000011,0,0,1.0000011,0,-2.5414299e-4)" /><path
   style="fill:#e85a4f;fill-opacity:1;stroke-width:1.43959"
   d="m 991.15681,172.27766 c 0,-10.40547 12.37979,-24.24713 25.76749,-28.81026 5.1913,-1.76941 174.757,-2.52058 179.2562,-0.7941 1.8998,0.72903 2.2771,3.71071 2.2771,17.99486 V 177.7892 H 1094.8072 991.15681 Z"
   id="path22"
   transform="matrix(1.0000011,0,0,1.0000011,0,-2.5414299e-4)" /></svg>
